<?xml version="1.0" encoding="UTF-8"?>
<svg width="12px" height="6px" viewBox="0 0 12 6" version="1.1" xmlns="http://www.w3.org/2000/svg" xmlns:xlink="http://www.w3.org/1999/xlink">
    <!-- Generator: Sketch 49 (51002) - http://www.bohemiancoding.com/sketch -->
    <title>返回顶层</title>
    <desc>Created with Sketch.</desc>
    <defs></defs>
    <g id="Page-1" stroke="none" stroke-width="1" fill="none" fill-rule="evenodd">
        <path d="M3.06574739,3.27867308 C2.94812182,2.9932159 2.98663493,2.64395915 3.19492964,2.41440867 L7.91723271,-2.79549684 C8.17474625,-3.07943306 8.58068487,-3.06593668 8.82454176,-2.76602254 C9.06794572,-2.46566012 9.05678707,-1.99215024 8.79927353,-1.7077017 L4.56214508,2.96777612 L8.78255617,7.71264101 C9.0375168,7.99960311 9.0452304,8.47311299 8.79927355,8.77096186 C8.67349516,8.92369665 8.50541549,9 8.33726719,9 C8.1768874,9 8.01645271,8.93018067 7.89197822,8.79046194 L3.21248426,3.52961284 C3.20348048,3.51919037 3.20007661,3.50470138 3.19107283,3.49376658 C3.18421019,3.48620988 3.17697698,3.4807505 3.17012807,3.47274554 C3.13375611,3.42834998 3.11449954,3.37398024 3.08969798,3.32305263 C3.0828628,3.30758703 3.0717316,3.294651 3.06574739,3.27867308 Z" id="返回顶层" fill="#FFFFFF" transform="translate(6.000000, 3.000000) scale(-1, 1) rotate(-270.000000) translate(-6.000000, -3.000000) "></path>
    </g>
</svg>