<?xml version="1.0" encoding="UTF-8"?>
<svg width="12px" height="12px" viewBox="0 0 12 12" version="1.1" xmlns="http://www.w3.org/2000/svg" xmlns:xlink="http://www.w3.org/1999/xlink">
    <!-- Generator: Sketch 49 (51002) - http://www.bohemiancoding.com/sketch -->
    <title>el-icon-circle-close copy 18</title>
    <desc>Created with Sketch.</desc>
    <defs></defs>
    <g id="Page-1" stroke="none" stroke-width="1" fill="none" fill-rule="evenodd">
        <g id="2.4-群组演进史" transform="translate(-301.000000, -197.000000)" fill="#D3DCE6">
            <g id="Group-27-Copy" transform="translate(230.000000, 187.000000)">
                <path d="M77.1168831,15.4726096 L74.7473537,13.1030802 C74.5795144,12.9352409 74.3083414,12.9354243 74.1409738,13.1027919 C73.978501,13.2652646 73.9737354,13.541645 74.1412622,13.7091718 L76.5107916,16.0787012 L74.1412622,18.4482306 C73.9734229,18.6160699 73.9736063,18.8872429 74.1409738,19.0546105 C74.3034466,19.2170832 74.5798269,19.2218489 74.7473537,19.0543221 L77.1168831,16.6847927 L79.4864125,19.0543221 C79.6542518,19.2221614 79.9254249,19.221978 80.0927924,19.0546105 C80.2552652,18.8921377 80.2600309,18.6157574 80.092504,18.4482306 L77.7229746,16.0787012 L80.092504,13.7091718 C80.2603434,13.5413324 80.26016,13.2701594 80.0927924,13.1027919 C79.9303196,12.9403191 79.6539393,12.9355534 79.4864125,13.1030802 L77.1168831,15.4726096 Z M77,22 C73.6862915,22 71,19.3137085 71,16 C71,12.6862915 73.6862915,10 77,10 C80.3137085,10 83,12.6862915 83,16 C83,19.3137085 80.3137085,22 77,22 Z" id="el-icon-circle-close-copy-18"></path>
            </g>
        </g>
    </g>
</svg>