<?xml version="1.0" encoding="UTF-8"?>
<svg width="8px" height="4px" viewBox="0 0 8 4" version="1.1" xmlns="http://www.w3.org/2000/svg" xmlns:xlink="http://www.w3.org/1999/xlink">
    <!-- Generator: Sketch 49 (51002) - http://www.bohemiancoding.com/sketch -->
    <title>顶部  你好池叔</title>
    <desc>Created with Sketch.</desc>
    <defs></defs>
    <g id="Page-1" stroke="none" stroke-width="1" fill="none" fill-rule="evenodd">
        <path d="M2.04383159,2.18578205 C1.96541454,1.99547727 1.99108995,1.76263943 2.1299531,1.60960578 L5.27815514,-1.86366456 C5.44983083,-2.05295537 5.72045658,-2.04395779 5.88302784,-1.84401503 C6.04529715,-1.64377341 6.03785805,-1.32810016 5.86618236,-1.1384678 L3.04143005,1.97851742 L5.85503744,5.14176067 C6.0250112,5.33306874 6.0301536,5.64874199 5.86618236,5.8473079 C5.78233011,5.9491311 5.67027699,6 5.55817813,6 C5.45125827,6 5.3443018,5.95345378 5.26131881,5.86030796 L2.14165617,2.35307522 C2.13565365,2.34612691 2.13338441,2.33646759 2.12738189,2.32917772 C2.1228068,2.32413992 2.11798465,2.32050033 2.11341871,2.31516369 C2.08917074,2.28556666 2.07633303,2.24932016 2.05979866,2.21536842 C2.05524187,2.20505802 2.04782107,2.196434 2.04383159,2.18578205 Z" id="顶部--你好池叔" fill="#6F7D95" transform="translate(4.000000, 2.000000) scale(-1, 1) rotate(-90.000000) translate(-4.000000, -2.000000) "></path>
    </g>
</svg>