<?xml version="1.0" encoding="UTF-8"?>
<svg width="135px" height="134px" viewBox="0 0 135 134" version="1.1" xmlns="http://www.w3.org/2000/svg" xmlns:xlink="http://www.w3.org/1999/xlink">
    <!-- Generator: Sketch 47.1 (45422) - http://www.bohemiancoding.com/sketch -->
    <title>输入查询条件</title>
    <desc>Created with Sketch.</desc>
    <defs></defs>
    <g id="Page-2" stroke="none" stroke-width="1" fill="none" fill-rule="evenodd" opacity="0.20142663">
        <g id="3-发起查询" transform="translate(-695.000000, -399.000000)" fill-rule="nonzero">
            <g id="输入查询条件" transform="translate(695.000000, 399.000000)">
                <g id="业务查询">
                    <path d="M18,18 L18,38.5128205 L42.5416667,38.5128205 L42.5416667,18 L18,18 Z M37.375,33.3846154 L24.4583333,33.3846154 L24.4583333,23.1282051 L37.375,23.1282051 L37.375,33.3846154 Z M55.4583333,18 L55.4583333,38.5128205 L80,38.5128205 L80,18 L55.4583333,18 Z M73.5416667,33.3846154 L60.625,33.3846154 L60.625,23.1282051 L73.5416667,23.1282051 L73.5416667,33.3846154 Z M18,48.7692308 L68.375,48.7692308 L68.375,53.8974359 L18,53.8974359 L18,48.7692308 Z M18,62.8717949 L52.875,62.8717949 L52.875,68 L18,68 L18,62.8717949 Z" id="Shape" fill="#BAD4FF"></path>
                    <path d="M117.035367,75.240192 L106.745951,63.8166528 C109.318305,60.0088065 110.604482,56.2009601 110.604482,51.1238315 C109.318305,42.2388566 100.315066,35.892446 91.3118276,37.1617281 C82.3085887,39.7002924 75.8777038,48.5852673 77.1638808,57.4702422 C78.4500578,66.3552171 87.4532967,72.7016278 96.4565355,71.4323456 C99.0288895,71.4323456 100.315066,70.1630635 102.88742,68.8937814 L111.890659,79.0480384 C113.176836,80.3173205 115.74919,80.3173205 117.035367,79.0480384 C118.321544,77.7787563 118.321544,76.5094741 117.035367,75.240192 Z" id="Shape" fill="#4E8CEE"></path>
                    <path d="M82.2186404,56.1445798 C80.8118465,50.4257003 86.4390221,43.2771009 92.0661976,43.2771009 C97.6933731,41.847381 103.320549,46.1365406 104.727343,51.8554202 C106.134136,57.5742997 101.913755,63.2931792 96.2865792,64.7228991 C89.2526098,66.152619 83.6254343,61.8634594 82.2186404,56.1445798 Z" id="Shape" fill="#BAD4FF"></path>
                    <path d="M16.7142857,106.942308 C15.4285714,106.942308 14.1428571,108.230769 14.1428571,110.807692 C14.1428571,113.384615 15.4285714,114.673077 16.7142857,114.673077 L119.571429,114.673077 C120.857143,114.673077 122.142857,113.384615 122.142857,110.807692 C122.142857,108.230769 120.857143,106.942308 119.571429,106.942308 L16.7142857,106.942308 Z M131.142857,95.3461538 C133.714286,95.3461538 135,94.0576923 135,91.4807692 L135,3.86538462 C135,1.28846154 133.714286,0 131.142857,0 L3.85714286,0 C1.28571429,1.28846154 0,2.57692308 0,3.86538462 L0,91.4807692 C0,94.0576923 1.28571429,95.3461538 3.85714286,95.3461538 L131.142857,95.3461538 L131.142857,95.3461538 Z M6.42857143,87.6153846 L6.42857143,7.73076923 L127.285714,7.73076923 L127.285714,87.6153846 L6.42857143,87.6153846 Z M119.571429,126.269231 L16.7142857,126.269231 C15.4285714,126.269231 14.1428571,127.557692 14.1428571,130.134615 C14.1428571,132.711538 15.4285714,134 16.7142857,134 L119.571429,134 C120.857143,134 122.142857,132.711538 122.142857,130.134615 C122.142857,127.557692 122.142857,126.269231 119.571429,126.269231 Z" id="Shape" fill="#4E8CEE"></path>
                </g>
            </g>
        </g>
    </g>
</svg>