<?xml version="1.0" encoding="UTF-8"?>
<svg width="18px" height="11px" viewBox="0 0 18 11" version="1.1" xmlns="http://www.w3.org/2000/svg" xmlns:xlink="http://www.w3.org/1999/xlink">
    <!-- Generator: Sketch 49 (51002) - http://www.bohemiancoding.com/sketch -->
    <title>显示密码</title>
    <desc>Created with Sketch.</desc>
    <defs></defs>
    <g id="Page-1" stroke="none" stroke-width="1" fill="none" fill-rule="evenodd" opacity="0.900000036">
        <path d="M17.9999821,5.46764727 C17.9999821,7.21454809 14.288723,10.9411765 8.99998226,10.9411765 C3.84587268,10.9411765 0,7.2758883 0,5.46764727 C0,3.65966881 3.86244888,0 8.99999984,0 C14.3302953,1.75057703e-05 18.0012653,3.65970382 17.9999997,5.46766477 L17.9999997,5.46764727 L17.9999821,5.46764727 Z M9.00792759,0.998389093 C6.61262217,0.998389093 4.67086841,3.00076912 4.67086841,5.47060574 C4.67086841,7.94047737 6.61260459,9.94282239 9.00791001,9.94282239 C11.4039361,9.94282239 13.3457426,7.94045986 13.3457426,5.47060574 C13.3457426,3.00076912 11.4039361,0.998389093 9.00792759,0.998389093 Z M8.99999984,2.61543211 C7.47460235,2.61543211 6.23801402,3.89032484 6.23801402,5.46314828 C6.23801402,7.03579667 7.47460235,8.31093448 8.99999984,8.31093448 C10.5253973,8.31093448 11.7614759,7.03579667 11.7614759,5.46314828 C11.7614759,3.89030734 10.5253797,2.61543211 8.99999984,2.61543211 Z" id="显示密码" fill="#D3DCE6" fill-rule="nonzero"></path>
    </g>
</svg>