<?xml version="1.0" encoding="UTF-8"?>
<svg width="13px" height="16px" viewBox="0 0 13 16" version="1.1" xmlns="http://www.w3.org/2000/svg" xmlns:xlink="http://www.w3.org/1999/xlink">
    <!-- Generator: Sketch 49 (51002) - http://www.bohemiancoding.com/sketch -->
    <title>密码</title>
    <desc>Created with Sketch.</desc>
    <defs></defs>
    <g id="Page-1" stroke="none" stroke-width="1" fill="none" fill-rule="evenodd">
        <g id="密码" fill="#D3DCE6" fill-rule="nonzero">
            <path d="M9.62161509,6.27606936 C9.27163926,6.27606936 8.98875725,5.98751445 8.98875725,5.63052023 L8.98875725,3.84924855 C8.98875725,2.43976879 7.86448259,1.29479769 6.48452611,1.29479769 C5.10275629,1.29479769 3.98029497,2.4416185 3.98029497,3.84924855 L3.98029497,5.63052023 C3.98029497,5.98751445 3.69741296,6.27606936 3.34743714,6.27606936 C2.99746132,6.27606936 2.7145793,5.98751445 2.7145793,5.63052023 L2.7145793,3.84924855 C2.7145793,1.72763006 4.40643133,0.00184971098 6.48633946,0.00184971098 C8.56624758,0.00184971098 10.2580996,1.72763006 10.2580996,3.84924855 L10.2580996,5.63052023 C10.2562863,5.98751445 9.97159091,6.27606936 9.62161509,6.27606936 Z" id="Shape"></path>
            <path d="M11.1665861,15.9833526 L1.8006528,15.9833526 C0.808752418,15.9833526 0.00181334623,15.1602312 0.00181334623,14.1484393 L0.00181334623,7.50057803 C0.00181334623,6.48878613 0.808752418,5.66566474 1.8006528,5.66566474 L11.1665861,5.66566474 C12.1584865,5.66566474 12.9654255,6.48878613 12.9654255,7.50057803 L12.9654255,14.1484393 C12.9654255,15.1602312 12.1584865,15.9833526 11.1665861,15.9833526 Z M1.8006528,6.95861272 C1.50689072,6.95861272 1.26934236,7.20277457 1.26934236,7.50057803 L1.26934236,14.1484393 C1.26934236,14.4480925 1.50870406,14.6904046 1.8006528,14.6904046 L11.1665861,14.6904046 C11.4603482,14.6904046 11.6978965,14.4462428 11.6978965,14.1484393 L11.6978965,7.50057803 C11.6978965,7.20092486 11.4585348,6.95861272 11.1665861,6.95861272 L1.8006528,6.95861272 Z" id="Shape"></path>
            <path d="M6.48271277,13.1421965 C5.91876209,13.1421965 5.46179884,12.6760694 5.46179884,12.1008092 L5.46179884,9.5500578 C5.46179884,8.97479769 5.91876209,8.50867052 6.48271277,8.50867052 C7.04666344,8.50867052 7.50362669,8.97479769 7.50362669,9.5500578 L7.50362669,12.1008092 C7.50544004,12.6760694 7.04847679,13.1421965 6.48271277,13.1421965 L6.48271277,13.1421965 Z" id="Shape"></path>
        </g>
    </g>
</svg>