<?xml version="1.0" encoding="UTF-8"?>
<svg width="14px" height="15px" viewBox="0 0 14 15" version="1.1" xmlns="http://www.w3.org/2000/svg" xmlns:xlink="http://www.w3.org/1999/xlink">
    <!-- Generator: Sketch 49 (51002) - http://www.bohemiancoding.com/sketch -->
    <title>用户名</title>
    <desc>Created with Sketch.</desc>
    <defs></defs>
    <g id="Page-1" stroke="none" stroke-width="1" fill="none" fill-rule="evenodd">
        <path d="M12.0473438,5 C12.0473438,2.25097657 9.75629905,0 6.95281647,0 C4.14933388,0 1.85828909,2.25097657 1.85828909,5 C1.85828909,6.81152344 2.87818959,8.37402343 4.34087617,9.25048828 C2.24137368,10.1245117 0.522468198,11.9384766 0.0125179589,14.2504883 C-0.052158653,14.5629883 0.139383631,14.9389648 0.457791586,15 L0.584657257,15 C0.903065213,15 1.15679656,14.8120117 1.22147318,14.4995117 C1.85828909,11.875 4.27868711,9.93652343 6.95281647,9.93652343 L7.01749308,9.93652343 C9.81848811,9.93652343 12.0473438,7.68798828 12.0473438,5 L12.0473438,5 Z M3.13192094,5 C3.13192094,2.93701172 4.85082642,1.25 6.95281647,1.25 C9.05480651,1.25 10.773712,2.93701172 10.773712,5 C10.773712,7.06298827 9.05480651,8.75 6.95281647,8.75 C4.85082642,8.75 3.13192094,7.06298827 3.13192094,5 L3.13192094,5 Z M11.0921199,10 L10.7090354,9.75097657 C10.3906274,9.56298829 10.0075428,9.62646485 9.81848811,9.93896484 C9.62943339,10.2514648 9.69162244,10.6274414 10.0100304,10.8129883 L10.393115,11.0620117 C11.5398811,11.875 12.4304284,13.125 12.7488364,14.4995117 C12.813513,14.8120117 13.0672443,15 13.3856523,15 L13.512518,15 C13.8309259,14.9365234 14.0846573,14.5629883 13.9577916,14.2504883 C13.512518,12.5 12.495105,11.0009766 11.0921199,10 L11.0921199,10 Z" id="用户名" fill="#D3DCE6" fill-rule="nonzero"></path>
    </g>
</svg>