<?xml version="1.0" encoding="UTF-8"?>
<svg width="18px" height="9px" viewBox="0 0 18 9" version="1.1" xmlns="http://www.w3.org/2000/svg" xmlns:xlink="http://www.w3.org/1999/xlink">
    <!-- Generator: Sketch 49 (51002) - http://www.bohemiancoding.com/sketch -->
    <title>不显示密码</title>
    <desc>Created with Sketch.</desc>
    <defs></defs>
    <g id="Page-1" stroke="none" stroke-width="1" fill="none" fill-rule="evenodd">
        <path d="M17.8876946,1.03684212 C18.0808436,0.747127475 18.0164606,0.360847176 17.7589286,0.135497846 C17.469214,-0.0898338016 17.0829337,-0.0254508048 16.8575843,0.26426384 C16.825384,0.29646418 13.2522426,4.51341785 9.0030886,4.51341785 C4.88270058,4.51341785 1.14859285,0.26426384 1.1164102,0.232081183 C0.89107855,-0.025433122 0.472597912,-0.0576334618 0.215065924,0.167698186 C-0.0424483803,0.393029833 -0.0746487201,0.811510472 0.150682928,1.06904246 C0.215065924,1.16560811 0.987626521,2.03475205 2.21088578,3.00047932 L0.569163566,4.70656684 C0.311649261,4.96408115 0.343831918,5.38256179 0.601363906,5.60791112 C0.665746902,5.73667711 0.826695553,5.80106011 0.987644204,5.80106011 C1.14859285,5.80106011 1.30955919,5.73667711 1.4383075,5.60791112 L3.20879571,3.7730576 C4.0457393,4.35248689 5.04364923,4.89971583 6.13814249,5.28601382 L5.46214755,7.57153063 C5.36558189,7.92562827 5.5587132,8.27972591 5.91281084,8.37629157 C5.97719384,8.37629157 6.04157684,8.37629157 6.10595983,8.37629157 C6.39567448,8.37629157 6.65318878,8.18314258 6.71758946,7.89342793 L7.39358441,5.60791112 C7.9086307,5.70447677 8.45587733,5.76885977 9.00310628,5.76885977 C9.55033523,5.76885977 10.0975819,5.70447677 10.6126282,5.60791112 L11.2886231,7.86124528 C11.3530061,8.15095992 11.6427207,8.34410891 11.9002527,8.34410891 C11.9646357,8.34410891 12.0290187,8.34410891 12.0612014,8.31190857 C12.415299,8.21534292 12.6084303,7.86124528 12.5118647,7.50714763 L11.8358697,5.25381348 C12.9303453,4.86753318 13.9282552,4.32028655 14.7652165,3.74085726 L16.5035044,5.54352812 C16.6322704,5.67229411 16.793219,5.73667711 16.9541677,5.73667711 C17.1151163,5.73667711 17.2760827,5.67229411 17.404831,5.54352812 C17.6623453,5.28601382 17.6623453,4.89971583 17.4370313,4.64218385 L15.7953091,2.93609632 C17.1151163,1.97038673 17.8876946,1.0368598 17.8876946,1.0368598 L17.8876946,1.03684212 Z" id="不显示密码" fill="#D7DFE8" fill-rule="nonzero"></path>
    </g>
</svg>