<?xml version="1.0" encoding="UTF-8"?>
<svg width="120px" height="41px" viewBox="0 0 120 41" version="1.1" xmlns="http://www.w3.org/2000/svg" xmlns:xlink="http://www.w3.org/1999/xlink">
    <!-- Generator: Sketch 48.2 (47327) - http://www.bohemiancoding.com/sketch -->
    <title>安信联</title>
    <desc>Created with Sketch.</desc>
    <defs>
        <linearGradient x1="50%" y1="0%" x2="50%" y2="100%" id="linearGradient-1">
            <stop stop-color="#2462D8" offset="0%"></stop>
            <stop stop-color="#3FCDEA" offset="100%"></stop>
        </linearGradient>
        <linearGradient x1="50%" y1="4.19921875%" x2="50%" y2="100%" id="linearGradient-2">
            <stop stop-color="#2463D8" offset="0%"></stop>
            <stop stop-color="#3FCDEA" offset="100%"></stop>
        </linearGradient>
        <path d="M22.8896104,5.50746269 L25.2279578,7.28234827 L30.3182972,9.21002307 L36.6233766,10.2695415 L36.6233766,21.5307084 L36.6233766,26.4550423 L31.3824226,32.0923769 L27.1613215,35.2590395 L23.9259049,36.7164179 L17.5358493,34.4109275 L12.3274836,29.6316995 L9.57603729,25.6812095 L9.15584416,19.8149373 L9.15584416,13.3107917 L9.93401999,11.0598557 C9.93401999,11.0598557 19.1809969,10.5715281 22.8896104,5.50746269 Z" id="path-3"></path>
        <filter x="-12.7%" y="-8.0%" width="125.5%" height="122.4%" filterUnits="objectBoundingBox" id="filter-4">
            <feOffset dx="0" dy="1" in="SourceAlpha" result="shadowOffsetOuter1"></feOffset>
            <feGaussianBlur stdDeviation="1" in="shadowOffsetOuter1" result="shadowBlurOuter1"></feGaussianBlur>
            <feColorMatrix values="0 0 0 0 0.188235294   0 0 0 0 0.266666667   0 0 0 0 0.470588235  0 0 0 0.5 0" type="matrix" in="shadowBlurOuter1"></feColorMatrix>
        </filter>
        <linearGradient x1="50%" y1="0%" x2="50%" y2="100%" id="linearGradient-5">
            <stop stop-color="#5088F3" offset="0%"></stop>
            <stop stop-color="#3FCDEA" offset="100%"></stop>
        </linearGradient>
        <path d="M37.2337662,23.0577811 L37.2337662,9.61320224 L35.9568598,9.61320224 C34.6131385,9.61320224 30.4992515,9.36626541 26.2962779,7.01982623 L23.8453388,5.39155272 C23.7838267,5.34302803 23.7212541,5.30097325 23.659742,5.25137027 L23.1973406,4.89552239 L23.1018908,4.89660073 L23.0117438,5.03786153 L22.7328182,5.25137027 C22.7328182,5.36890787 17.0482515,9.61320224 10.2066208,9.61320224 L10.0740516,9.61320224 C9.94590071,9.61320224 9.51005813,9.61320224 9.18212615,9.61320224 L9.16303614,22.5865522 C9.16303614,22.7051682 9.04743584,24.9459313 9.74315892,26.597928 C9.97435959,27.1877728 12.1781898,32.0219119 18.5584796,35.7960558 L18.67408,35.9135934 C19.4843428,36.3848223 21.3403115,37.3283582 23.1984012,37.3283582 C23.8920032,37.3283582 27.2560789,36.6209758 30.9711978,33.4366767 C31.0857376,33.4366767 31.203459,33.3191391 31.3190594,33.2005231 C32.3615835,32.3745248 34.681014,30.4874529 36.189121,27.5393073 C36.2103321,27.4972526 36.2357854,27.4368663 36.258057,27.3861849 C36.1429426,27.6499129 36.3030213,27.316436 36.6377352,26.4092208 C36.9389323,25.5066613 37.2337662,24.284917 37.2337662,23.0577811 Z M36.0745812,11.1455047 L36.0745812,13.5210587 L31.7655523,10.6559443 C33.6936386,11.0764918 35.2558339,11.1455047 36.0745812,11.1455047 Z M23.4327835,6.78151601 C24.857388,7.89853174 26.4247465,8.8134242 28.091795,9.50105625 L36.0745812,14.8085809 L36.0745812,17.874264 L21.281981,8.03992343 C22.2142075,7.53310981 22.9512923,7.07589923 23.4327835,6.78151601 Z M20.1959742,8.60712331 L36.0745812,19.1639429 L36.0745812,22.572534 L17.0567359,9.92699534 C18.1287196,9.5527496 19.1771031,9.11196369 20.1959742,8.60712331 Z M23.3150621,35.9125151 C21.6913547,35.7949775 20.0655262,34.9689791 19.369803,34.6152879 C14.5973123,31.8148732 12.3722711,28.4310836 11.5344338,26.9063295 L24.7457488,35.5911737 C23.8930637,35.8532071 23.3606659,35.9125151 23.3150621,35.9125151 Z M25.999323,35.1307281 L10.7888647,25.1314035 C10.4897886,23.9225991 10.5544824,22.7030115 10.5544824,22.7030115 L10.5544824,21.5880216 L28.7058555,33.6577337 C27.8503885,34.2327223 26.9443335,34.7258307 25.999323,35.1307281 Z M30.6233362,32.2569872 C30.5066753,32.3745248 30.3889539,32.3745248 30.2733536,32.4931408 C30.0506373,32.6775346 29.8311028,32.8500669 29.6136893,33.0139726 L29.6327793,32.9848578 L10.5544824,20.2994211 L10.5544824,16.4303844 L32.2565886,30.8594756 C31.7380865,31.3557536 31.1928262,31.8223119 30.6233362,32.2569872 Z M33.018066,30.075532 L10.5544824,15.1417839 L10.5544824,11.7051563 L34.7361627,27.7830092 C34.2410844,28.6042211 33.6654458,29.3723178 33.018066,30.075532 Z M11.5736742,11.093745 C12.9849615,10.9852543 14.3819868,10.7331014 15.7437706,10.3410728 L36.039583,23.836333 C35.9176193,25.0710173 35.495519,26.264725 35.2515917,26.8362383 L11.5736742,11.093745 Z" id="path-6"></path>
        <filter x="-12.5%" y="-7.7%" width="124.9%" height="121.6%" filterUnits="objectBoundingBox" id="filter-7">
            <feOffset dx="0" dy="1" in="SourceAlpha" result="shadowOffsetOuter1"></feOffset>
            <feGaussianBlur stdDeviation="1" in="shadowOffsetOuter1" result="shadowBlurOuter1"></feGaussianBlur>
            <feColorMatrix values="0 0 0 0 0.145973394   0 0 0 0 0.266082248   0 0 0 0 0.561729379  0 0 0 0.524937726 0" type="matrix" in="shadowBlurOuter1"></feColorMatrix>
        </filter>
    </defs>
    <g id="2-登录-用户名密码错误-copy" stroke="none" stroke-width="1" fill="none" fill-rule="evenodd" transform="translate(-798.000000, -146.000000)">
        <g id="安信联" transform="translate(798.000000, 146.000000)">
            <path d="M76.6448,14.73472 L76.6448,19.27552 L75.08192,19.27552 L75.08192,16.21312 L60.65696,16.21312 L60.65696,19.2544 L59.09408,19.2544 L59.09408,14.73472 L67.11968,14.73472 C66.824,14.01664 66.5072,13.38304 66.14816,12.79168 L67.83776,12.496 C68.17568,13.17184 68.49248,13.91104 68.78816,14.73472 L76.6448,14.73472 Z M58.5872,20.60608 L64.5008,20.60608 C65.1344,19.44448 65.74688,18.304 66.31712,17.16352 L67.88,17.62816 C67.33088,18.68416 66.80288,19.6768 66.296,20.60608 L77.21504,20.60608 L77.21504,22.08448 L73.0544,22.08448 C72.18848,24.3232 71.19584,26.07616 70.07648,27.3856 C72.25184,28.31488 74.46944,29.41312 76.70816,30.68032 L75.6944,32.01088 C73.45568,30.70144 71.21696,29.51872 68.97824,28.50496 C66.6128,30.61696 63.48704,31.7152 59.55872,31.84192 L58.67168,30.42688 C62.26208,30.40576 65.19776,29.53984 67.43648,27.82912 C65.4512,26.98432 63.48704,26.24512 61.52288,25.61152 C62.2832,24.4288 63.00128,23.24608 63.67712,22.08448 L58.5872,22.08448 L58.5872,20.60608 Z M65.47232,22.08448 C64.83872,23.18272 64.24736,24.15424 63.69824,24.99904 C65.30336,25.46368 66.9296,26.05504 68.59808,26.752 C69.73856,25.50592 70.66784,23.94304 71.38592,22.08448 L65.47232,22.08448 Z M81.69248,20.2048 C81.05888,21.13408 80.36192,22.04224 79.6016,22.88704 L79.11584,21.2608 C81.1856,18.70528 82.68512,15.7696 83.63552,12.47488 L85.05056,13.1296 C84.54368,14.75584 83.9312,16.27648 83.192,17.71264 L83.192,32.07424 L81.69248,32.07424 L81.69248,20.2048 Z M84.96608,15.4528 L91.47104,15.4528 C91.15424,14.608 90.7952,13.80544 90.3728,13.00288 L91.83008,12.6016 C92.2736,13.53088 92.61152,14.37568 92.86496,15.15712 L92.0624,15.4528 L98.7152,15.4528 L98.7152,16.88896 L84.96608,16.88896 L84.96608,15.4528 Z M86.90912,18.59968 L96.89888,18.59968 L96.89888,19.97248 L86.90912,19.97248 L86.90912,18.59968 Z M86.90912,21.5776 L96.89888,21.5776 L96.89888,22.97152 L86.90912,22.97152 L86.90912,21.5776 Z M97.27904,24.70336 L97.27904,32.032 L95.80064,32.032 L95.80064,30.89152 L87.98624,30.89152 L87.98624,32.032 L86.50784,32.032 L86.50784,24.70336 L97.27904,24.70336 Z M87.98624,29.45536 L95.80064,29.45536 L95.80064,26.1184 L87.98624,26.1184 L87.98624,29.45536 Z M109.2752,17.26912 L114.57632,17.26912 C115.4,15.8752 116.09696,14.35456 116.68832,12.7072 L118.10336,13.2352 C117.44864,14.84032 116.7728,16.17088 116.09696,17.26912 L119.2016,17.26912 L119.2016,18.70528 L114.872,18.70528 L114.872,19.82464 C114.872,20.69056 114.82976,21.51424 114.74528,22.3168 L119.60288,22.3168 L119.60288,23.7952 L114.5552,23.7952 C113.87936,27.63904 112.18976,30.40576 109.4864,32.09536 L108.57824,30.8704 C110.9648,29.45536 112.46432,27.08992 113.09792,23.7952 L108.91616,23.7952 L108.91616,22.3168 L113.30912,22.3168 C113.37248,21.59872 113.41472,20.88064 113.41472,20.16256 L113.41472,18.70528 L109.2752,18.70528 L109.2752,17.26912 Z M111.2816,12.87616 C112.21088,14.12224 112.90784,15.22048 113.3936,16.14976 L112.25312,16.95232 C111.72512,15.93856 111.00704,14.84032 110.12,13.61536 L111.2816,12.87616 Z M100.53152,13.552 L108.93728,13.552 L108.93728,14.94592 L107.60672,14.94592 L107.60672,26.49856 C108.07136,26.37184 108.536,26.24512 108.97952,26.1184 L108.97952,27.55456 C108.51488,27.68128 108.07136,27.78688 107.60672,27.9136 L107.60672,32.05312 L106.14944,32.05312 L106.14944,28.25152 C104.45984,28.63168 102.70688,28.9696 100.86944,29.26528 L100.5104,27.82912 L101.7776,27.66016 L101.7776,14.94592 L100.53152,14.94592 L100.53152,13.552 Z M103.23488,27.42784 C104.22752,27.25888 105.19904,27.0688 106.14944,26.8576 L106.14944,23.83744 L103.23488,23.83744 L103.23488,27.42784 Z M103.23488,22.44352 L106.14944,22.44352 L106.14944,19.44448 L103.23488,19.44448 L103.23488,22.44352 Z M103.23488,18.05056 L106.14944,18.05056 L106.14944,14.94592 L103.23488,14.94592 L103.23488,18.05056 Z M115.27328,25.31584 C116.96288,27.04768 118.50464,28.90624 119.87744,30.93376 L118.8848,32.032 C117.42752,29.83552 115.928,27.93472 114.40736,26.30848 L115.27328,25.31584 Z" fill="#FFFFFF"></path>
            <g id="反欺诈" fill-rule="nonzero">
                <path d="M0,38.5522388 C5.81118773e-15,39.9041 10.5213084,41 23.5,41 C36.4786916,41 47,39.9041 47,38.5522388 C47,37.2003776 36.4786916,36.1044776 23.5,36.1044776 C10.5213084,36.1044776 5.81118773e-15,37.2003776 0,38.5522388 Z" id="Shape" fill="#01050C" opacity="0.188836051"></path>
                <path d="M25.033421,19.2766286 L42.3436415,2.19581688 C42.8492211,1.69256478 42.8492211,0.881196531 42.3436415,0.37794443 C41.8342748,-0.123360887 41.0099011,-0.123360887 40.5005344,0.37794443 L23.1944768,17.4577291 L5.8852971,0.375890355 C5.37628712,-0.125296785 4.55224069,-0.125296785 4.04323072,0.375890355 C3.53537331,0.878214927 3.53537331,1.69143823 4.04323072,2.1937628 L21.3492883,19.2766286 L4.0442714,36.3543591 C3.67204802,36.7222772 3.56048079,37.2749736 3.7614228,37.7555716 C3.96236482,38.2361696 4.4364048,38.5504082 4.9632232,38.5522388 C5.29729285,38.5522388 5.63032182,38.423858 5.88633778,38.1753127 L23.1944768,21.0924469 L40.5005344,38.1732586 C40.7565504,38.4238579 41.0895793,38.5522388 41.4246897,38.5522388 C41.9513535,38.5512386 42.4257924,38.2379312 42.6276124,37.7578593 C42.8294323,37.2777873 42.7190746,36.7250498 42.3478044,36.3564132 L25.033421,19.2766286 Z" id="Shape" fill="url(#linearGradient-1)" opacity="0.615545743"></path>
                <g id="Shape">
                    <use fill="black" fill-opacity="1" filter="url(#filter-4)" xlink:href="#path-3"></use>
                    <use fill="url(#linearGradient-2)" fill-rule="evenodd" xlink:href="#path-3"></use>
                </g>
                <path d="M37.2337662,23.0577811 L37.2337662,9.61320224 L35.9568598,9.61320224 C34.6131385,9.61320224 30.4992515,9.36626541 26.2962779,7.01982623 L23.8453388,5.39155272 C23.7838267,5.34302803 23.7212541,5.30097325 23.659742,5.25137027 L23.1973406,4.89552239 L23.1018908,4.89660073 L23.0117438,5.03786153 L22.7328182,5.25137027 C22.7328182,5.36890787 17.0482515,9.61320224 10.2066208,9.61320224 L10.0740516,9.61320224 C9.94590071,9.61320224 9.51005813,9.61320224 9.18212615,9.61320224 L9.16303614,22.5865522 C9.16303614,22.7051682 9.04743584,24.9459313 9.74315892,26.597928 C9.97435959,27.1877728 12.1781898,32.0219119 18.5584796,35.7960558 L18.67408,35.9135934 C19.4843428,36.3848223 21.3403115,37.3283582 23.1984012,37.3283582 C23.8920032,37.3283582 27.2560789,36.6209758 30.9711978,33.4366767 C31.0857376,33.4366767 31.203459,33.3191391 31.3190594,33.2005231 C32.3615835,32.3745248 34.681014,30.4874529 36.189121,27.5393073 C36.2103321,27.4972526 36.2357854,27.4368663 36.258057,27.3861849 C36.1429426,27.6499129 36.3030213,27.316436 36.6377352,26.4092208 C36.9389323,25.5066613 37.2337662,24.284917 37.2337662,23.0577811 Z M36.0745812,11.1455047 L36.0745812,13.5210587 L31.7655523,10.6559443 C33.6936386,11.0764918 35.2558339,11.1455047 36.0745812,11.1455047 Z M23.4327835,6.78151601 C24.857388,7.89853174 26.4247465,8.8134242 28.091795,9.50105625 L36.0745812,14.8085809 L36.0745812,17.874264 L21.281981,8.03992343 C22.2142075,7.53310981 22.9512923,7.07589923 23.4327835,6.78151601 Z M20.1959742,8.60712331 L36.0745812,19.1639429 L36.0745812,22.572534 L17.0567359,9.92699534 C18.1287196,9.5527496 19.1771031,9.11196369 20.1959742,8.60712331 Z M23.3150621,35.9125151 C21.6913547,35.7949775 20.0655262,34.9689791 19.369803,34.6152879 C14.5973123,31.8148732 12.3722711,28.4310836 11.5344338,26.9063295 L24.7457488,35.5911737 C23.8930637,35.8532071 23.3606659,35.9125151 23.3150621,35.9125151 Z M25.999323,35.1307281 L10.7888647,25.1314035 C10.4897886,23.9225991 10.5544824,22.7030115 10.5544824,22.7030115 L10.5544824,21.5880216 L28.7058555,33.6577337 C27.8503885,34.2327223 26.9443335,34.7258307 25.999323,35.1307281 Z M30.6233362,32.2569872 C30.5066753,32.3745248 30.3889539,32.3745248 30.2733536,32.4931408 C30.0506373,32.6775346 29.8311028,32.8500669 29.6136893,33.0139726 L29.6327793,32.9848578 L10.5544824,20.2994211 L10.5544824,16.4303844 L32.2565886,30.8594756 C31.7380865,31.3557536 31.1928262,31.8223119 30.6233362,32.2569872 Z M33.018066,30.075532 L10.5544824,15.1417839 L10.5544824,11.7051563 L34.7361627,27.7830092 C34.2410844,28.6042211 33.6654458,29.3723178 33.018066,30.075532 Z M11.5736742,11.093745 C12.9849615,10.9852543 14.3819868,10.7331014 15.7437706,10.3410728 L36.039583,23.836333 C35.9176193,25.0710173 35.495519,26.264725 35.2515917,26.8362383 L11.5736742,11.093745 Z" id="Shape" fill="#FFFFFF"></path>
                <g id="Shape">
                    <use fill="black" fill-opacity="1" filter="url(#filter-7)" xlink:href="#path-6"></use>
                    <use fill="url(#linearGradient-5)" fill-rule="evenodd" xlink:href="#path-6"></use>
                </g>
            </g>
        </g>
    </g>
</svg>