<?xml version="1.0" encoding="UTF-8"?>
<svg width="77px" height="95px" viewBox="0 0 77 95" version="1.1" xmlns="http://www.w3.org/2000/svg" xmlns:xlink="http://www.w3.org/1999/xlink">
    <!-- Generator: Sketch 48.2 (47327) - http://www.bohemiancoding.com/sketch -->
    <title>安信联-侧边</title>
    <desc>Created with Sketch.</desc>
    <defs>
        <linearGradient x1="50%" y1="0%" x2="50%" y2="100%" id="linearGradient-1">
            <stop stop-color="#2462D8" offset="0%"></stop>
            <stop stop-color="#3FCDEA" offset="100%"></stop>
        </linearGradient>
        <linearGradient x1="50%" y1="4.19921875%" x2="50%" y2="100%" id="linearGradient-2">
            <stop stop-color="#2463D8" offset="0%"></stop>
            <stop stop-color="#3FCDEA" offset="100%"></stop>
        </linearGradient>
        <path d="M37.5,9 L41.3309096,11.9004228 L49.6704018,15.0505255 L60,16.7819336 L60,35.1843283 L60,43.2314106 L51.4137562,52.4436403 L44.4983352,57.6184305 L39.197759,60 L28.7289446,56.2324914 L20.1960901,48.4225334 L15.6884015,41.9668546 L15,32.3805073 L15,21.7517816 L16.2748838,18.0734227 C16.2748838,18.0734227 31.4241865,17.275424 37.5,9 Z" id="path-3"></path>
        <filter x="-15.6%" y="-9.8%" width="131.1%" height="127.5%" filterUnits="objectBoundingBox" id="filter-4">
            <feOffset dx="0" dy="2" in="SourceAlpha" result="shadowOffsetOuter1"></feOffset>
            <feGaussianBlur stdDeviation="2" in="shadowOffsetOuter1" result="shadowBlurOuter1"></feGaussianBlur>
            <feColorMatrix values="0 0 0 0 0.188235294   0 0 0 0 0.266666667   0 0 0 0 0.470588235  0 0 0 0.5 0" type="matrix" in="shadowBlurOuter1"></feColorMatrix>
        </filter>
        <linearGradient x1="50%" y1="0%" x2="50%" y2="100%" id="linearGradient-5">
            <stop stop-color="#5088F3" offset="0%"></stop>
            <stop stop-color="#3FCDEA" offset="100%"></stop>
        </linearGradient>
        <path d="M61,37.6797886 L61,15.7093793 L58.9080469,15.7093793 C56.7066312,15.7093793 49.9668588,15.3058484 43.0811362,11.4714234 L39.0657679,8.81058616 C38.9649928,8.73128971 38.8624801,8.66256604 38.7617049,8.58150751 L38.0041538,8 L37.8477786,8.00176217 L37.7000909,8.23260299 L37.2431277,8.58150751 C37.2431277,8.77358115 27.9301141,15.7093793 16.7214852,15.7093793 L16.5042973,15.7093793 C16.294348,15.7093793 15.580308,15.7093793 15.0430577,15.7093793 L15.0117826,36.9097317 C15.0117826,37.1035675 14.8223949,40.7653024 15.9621965,43.4649068 C16.3409721,44.4287995 19.9515024,52.3284902 30.4043177,58.4959936 L30.5937055,58.6880673 C31.9211574,59.4581242 34.9617869,61 38.0058914,61 C39.142218,61 44.6535761,59.8440337 50.7400474,54.6404229 C50.9276977,54.6404229 51.1205605,54.4483492 51.3099483,54.2545134 C53.0179134,52.9047113 56.8178314,49.8209595 59.28856,45.0032583 C59.32331,44.9345347 59.3650101,44.8358546 59.4014977,44.7530338 C59.212906,45.1840039 59.4751625,44.6390539 60.0235236,43.1565316 C60.5169742,41.6816172 61,39.6851082 61,37.6797886 Z M59.1009097,18.2133857 L59.1009097,22.0953885 L52.0414368,17.4133724 C55.2002164,18.1006085 57.7595577,18.2133857 59.1009097,18.2133857 Z M38.3898793,11.0819896 C40.7238058,12.9073567 43.2916059,14.4024249 46.022728,15.5261163 L59.1009097,24.1993883 L59.1009097,29.2091632 L34.8662243,13.1384115 C36.3934889,12.3102038 37.6010533,11.5630548 38.3898793,11.0819896 Z M33.0870216,14.0652991 L59.1009097,31.3166872 L59.1009097,36.8868239 L27.9440141,16.2221631 C29.7002427,15.6105908 31.4178071,14.8902821 33.0870216,14.0652991 Z M38.1970166,58.6863052 C35.5369002,58.4942315 32.8733088,57.1444293 31.7335071,56.5664461 C23.9147457,51.9901586 20.2694653,46.4605512 18.8968384,43.9688799 L40.5409075,58.1611863 C39.1439555,58.5893872 38.2717292,58.6863052 38.1970166,58.6863052 Z M42.5946356,57.4087508 L17.6753741,41.0683911 C17.1853984,39.0930279 17.291386,37.1000432 17.291386,37.1000432 L17.291386,35.2779865 L47.028742,55.0016624 C45.6272322,55.9412779 44.1428443,56.7470891 42.5946356,57.4087508 Z M50.1701466,52.7126376 C49.9790213,52.9047112 49.7861585,52.9047112 49.5967708,53.0985471 C49.2318952,53.3998737 48.8722322,53.6818167 48.5160442,53.9496625 L48.5473193,53.9020847 L17.291386,33.1722247 L17.291386,26.8496525 L52.8459005,50.4288992 C51.9964396,51.23989 51.1031408,52.0023146 50.1701466,52.7126376 Z M54.0934273,49.1478206 L17.291386,24.7438907 L17.291386,19.1279383 L56.9081815,45.4015029 C56.0970957,46.7434832 55.1540283,47.9986657 54.0934273,49.1478206 Z M18.9611259,18.1288028 C21.2732348,17.9515131 23.5619783,17.5394583 25.792986,16.8988264 L59.0435721,38.9520564 C58.8437593,40.9697111 58.1522333,42.9204043 57.7526077,43.8543406 L18.9611259,18.1288028 Z" id="path-6"></path>
        <filter x="-15.2%" y="-9.4%" width="130.4%" height="126.4%" filterUnits="objectBoundingBox" id="filter-7">
            <feOffset dx="0" dy="2" in="SourceAlpha" result="shadowOffsetOuter1"></feOffset>
            <feGaussianBlur stdDeviation="2" in="shadowOffsetOuter1" result="shadowBlurOuter1"></feGaussianBlur>
            <feColorMatrix values="0 0 0 0 0.145973394   0 0 0 0 0.266082248   0 0 0 0 0.561729379  0 0 0 0.524937726 0" type="matrix" in="shadowBlurOuter1"></feColorMatrix>
        </filter>
    </defs>
    <g id="8-查询量-copy" stroke="none" stroke-width="1" fill="none" fill-rule="evenodd" transform="translate(-42.000000, -35.000000)">
        <g id="侧边栏" transform="translate(-2.000000, -1.000000)">
            <g id="安信联-侧边" transform="translate(44.000000, 36.000000)">
                <path d="M29.81,82.934 L29.81,85.944 L28.774,85.944 L28.774,83.914 L19.212,83.914 L19.212,85.93 L18.176,85.93 L18.176,82.934 L23.496,82.934 C23.3,82.458 23.09,82.038 22.852,81.646 L23.972,81.45 C24.196,81.898 24.406,82.388 24.602,82.934 L29.81,82.934 Z M17.84,86.826 L21.76,86.826 C22.18,86.056 22.586,85.3 22.964,84.544 L24,84.852 C23.636,85.552 23.286,86.21 22.95,86.826 L30.188,86.826 L30.188,87.806 L27.43,87.806 C26.856,89.29 26.198,90.452 25.456,91.32 C26.898,91.936 28.368,92.664 29.852,93.504 L29.18,94.386 C27.696,93.518 26.212,92.734 24.728,92.062 C23.16,93.462 21.088,94.19 18.484,94.274 L17.896,93.336 C20.276,93.322 22.222,92.748 23.706,91.614 C22.39,91.054 21.088,90.564 19.786,90.144 C20.29,89.36 20.766,88.576 21.214,87.806 L17.84,87.806 L17.84,86.826 Z M22.404,87.806 C21.984,88.534 21.592,89.178 21.228,89.738 C22.292,90.046 23.37,90.438 24.476,90.9 C25.232,90.074 25.848,89.038 26.324,87.806 L22.404,87.806 Z M33.156,86.56 C32.736,87.176 32.274,87.778 31.77,88.338 L31.448,87.26 C32.82,85.566 33.814,83.62 34.444,81.436 L35.382,81.87 C35.046,82.948 34.64,83.956 34.15,84.908 L34.15,94.428 L33.156,94.428 L33.156,86.56 Z M35.326,83.41 L39.638,83.41 C39.428,82.85 39.19,82.318 38.91,81.786 L39.876,81.52 C40.17,82.136 40.394,82.696 40.562,83.214 L40.03,83.41 L44.44,83.41 L44.44,84.362 L35.326,84.362 L35.326,83.41 Z M36.614,85.496 L43.236,85.496 L43.236,86.406 L36.614,86.406 L36.614,85.496 Z M36.614,87.47 L43.236,87.47 L43.236,88.394 L36.614,88.394 L36.614,87.47 Z M43.488,89.542 L43.488,94.4 L42.508,94.4 L42.508,93.644 L37.328,93.644 L37.328,94.4 L36.348,94.4 L36.348,89.542 L43.488,89.542 Z M37.328,92.692 L42.508,92.692 L42.508,90.48 L37.328,90.48 L37.328,92.692 Z M51.44,84.614 L54.926,84.614 C55.458,83.676 55.92,82.668 56.298,81.59 L57.222,81.94 C56.802,83.004 56.382,83.886 55.934,84.614 L58.02,84.614 L58.02,85.566 L55.15,85.566 L55.15,85.986 C55.15,86.686 55.108,87.344 55.038,87.974 L58.258,87.974 L58.258,88.94 L55.36,88.94 C55.696,90.48 56.732,92.048 58.468,93.644 L57.768,94.386 C56.158,92.79 55.15,91.208 54.744,89.654 C54.198,91.81 53.12,93.406 51.524,94.442 L50.922,93.644 C52.49,92.692 53.498,91.124 53.932,88.94 L51.23,88.94 L51.23,87.974 L54.072,87.974 C54.128,87.414 54.17,86.826 54.184,86.21 L54.184,85.566 L51.44,85.566 L51.44,84.614 Z M52.826,81.674 C53.386,82.5 53.82,83.228 54.128,83.858 L53.372,84.376 C53.05,83.704 52.616,82.976 52.056,82.164 L52.826,81.674 Z M45.644,82.136 L51.216,82.136 L51.216,83.074 L50.306,83.074 L50.306,90.76 C50.628,90.648 50.936,90.55 51.244,90.452 L51.244,91.432 C50.936,91.53 50.614,91.628 50.306,91.712 L50.306,94.47 L49.34,94.47 L49.34,91.978 C48.22,92.258 47.072,92.524 45.868,92.748 L45.616,91.796 L46.498,91.656 L46.498,83.074 L45.644,83.074 L45.644,82.136 Z M47.464,91.474 C48.108,91.334 48.724,91.194 49.34,91.04 L49.34,88.968 L47.464,88.968 L47.464,91.474 Z M47.464,88.044 L49.34,88.044 L49.34,86.042 L47.464,86.042 L47.464,88.044 Z M47.464,85.132 L49.34,85.132 L49.34,83.074 L47.464,83.074 L47.464,85.132 Z" id="安信联" fill="#FFFFFF"></path>
                <g id="反欺诈" fill-rule="nonzero">
                    <path d="M0,63 C9.5204565e-15,65.209139 17.2370371,67 38.5,67 C59.7629629,67 77,65.209139 77,63 C77,60.790861 59.7629629,59 38.5,59 C17.2370371,59 9.5204565e-15,60.790861 0,63 Z" id="Shape" fill="#01050C" opacity="0.188836051"></path>
                    <path d="M41.0122004,31.5008321 L69.3714977,3.58828612 C70.1997877,2.76589854 70.1997877,1.44000409 69.3714977,0.617616508 C68.5370034,-0.201589743 67.1864337,-0.201589743 66.3519394,0.617616508 L37.999462,28.5284841 L9.64186972,0.614259848 C8.80795976,-0.204753283 7.45792624,-0.204753283 6.62401628,0.614259848 C5.79199457,1.43513171 5.79199457,2.76405759 6.62401628,3.58492946 L34.9764936,31.5008321 L6.62572122,59.4083429 C6.01590846,60.009575 5.8331281,60.9127618 6.16233098,61.6981292 C6.49153385,62.4834966 7.26815255,62.9970085 8.13123801,63 C8.6785436,63 9.22414425,62.790207 9.64357466,62.3840476 L37.999462,34.4681449 L66.3519394,62.3806909 C66.7713699,62.7902069 67.3169704,63 67.865981,63 C68.7288132,62.9983655 69.5060854,62.4863754 69.8367266,61.7018676 C70.1673678,60.9173598 69.986569,60.0141058 69.3783178,59.4116997 L41.0122004,31.5008321 Z" id="Shape" fill="url(#linearGradient-1)" opacity="0.615545743"></path>
                    <g id="Shape">
                        <use fill="black" fill-opacity="1" filter="url(#filter-4)" xlink:href="#path-3"></use>
                        <use fill="url(#linearGradient-2)" fill-rule="evenodd" xlink:href="#path-3"></use>
                    </g>
                    <path d="M61,37.6797886 L61,15.7093793 L58.9080469,15.7093793 C56.7066312,15.7093793 49.9668588,15.3058484 43.0811362,11.4714234 L39.0657679,8.81058616 C38.9649928,8.73128971 38.8624801,8.66256604 38.7617049,8.58150751 L38.0041538,8 L37.8477786,8.00176217 L37.7000909,8.23260299 L37.2431277,8.58150751 C37.2431277,8.77358115 27.9301141,15.7093793 16.7214852,15.7093793 L16.5042973,15.7093793 C16.294348,15.7093793 15.580308,15.7093793 15.0430577,15.7093793 L15.0117826,36.9097317 C15.0117826,37.1035675 14.8223949,40.7653024 15.9621965,43.4649068 C16.3409721,44.4287995 19.9515024,52.3284902 30.4043177,58.4959936 L30.5937055,58.6880673 C31.9211574,59.4581242 34.9617869,61 38.0058914,61 C39.142218,61 44.6535761,59.8440337 50.7400474,54.6404229 C50.9276977,54.6404229 51.1205605,54.4483492 51.3099483,54.2545134 C53.0179134,52.9047113 56.8178314,49.8209595 59.28856,45.0032583 C59.32331,44.9345347 59.3650101,44.8358546 59.4014977,44.7530338 C59.212906,45.1840039 59.4751625,44.6390539 60.0235236,43.1565316 C60.5169742,41.6816172 61,39.6851082 61,37.6797886 Z M59.1009097,18.2133857 L59.1009097,22.0953885 L52.0414368,17.4133724 C55.2002164,18.1006085 57.7595577,18.2133857 59.1009097,18.2133857 Z M38.3898793,11.0819896 C40.7238058,12.9073567 43.2916059,14.4024249 46.022728,15.5261163 L59.1009097,24.1993883 L59.1009097,29.2091632 L34.8662243,13.1384115 C36.3934889,12.3102038 37.6010533,11.5630548 38.3898793,11.0819896 Z M33.0870216,14.0652991 L59.1009097,31.3166872 L59.1009097,36.8868239 L27.9440141,16.2221631 C29.7002427,15.6105908 31.4178071,14.8902821 33.0870216,14.0652991 Z M38.1970166,58.6863052 C35.5369002,58.4942315 32.8733088,57.1444293 31.7335071,56.5664461 C23.9147457,51.9901586 20.2694653,46.4605512 18.8968384,43.9688799 L40.5409075,58.1611863 C39.1439555,58.5893872 38.2717292,58.6863052 38.1970166,58.6863052 Z M42.5946356,57.4087508 L17.6753741,41.0683911 C17.1853984,39.0930279 17.291386,37.1000432 17.291386,37.1000432 L17.291386,35.2779865 L47.028742,55.0016624 C45.6272322,55.9412779 44.1428443,56.7470891 42.5946356,57.4087508 Z M50.1701466,52.7126376 C49.9790213,52.9047112 49.7861585,52.9047112 49.5967708,53.0985471 C49.2318952,53.3998737 48.8722322,53.6818167 48.5160442,53.9496625 L48.5473193,53.9020847 L17.291386,33.1722247 L17.291386,26.8496525 L52.8459005,50.4288992 C51.9964396,51.23989 51.1031408,52.0023146 50.1701466,52.7126376 Z M54.0934273,49.1478206 L17.291386,24.7438907 L17.291386,19.1279383 L56.9081815,45.4015029 C56.0970957,46.7434832 55.1540283,47.9986657 54.0934273,49.1478206 Z M18.9611259,18.1288028 C21.2732348,17.9515131 23.5619783,17.5394583 25.792986,16.8988264 L59.0435721,38.9520564 C58.8437593,40.9697111 58.1522333,42.9204043 57.7526077,43.8543406 L18.9611259,18.1288028 Z" id="Shape" fill="#FFFFFF"></path>
                    <g id="Shape">
                        <use fill="black" fill-opacity="1" filter="url(#filter-7)" xlink:href="#path-6"></use>
                        <use fill="url(#linearGradient-5)" fill-rule="evenodd" xlink:href="#path-6"></use>
                    </g>
                </g>
            </g>
        </g>
    </g>
</svg>