<?xml version="1.0" encoding="UTF-8"?>
<svg width="4px" height="8px" viewBox="0 0 4 8" version="1.1" xmlns="http://www.w3.org/2000/svg" xmlns:xlink="http://www.w3.org/1999/xlink">
    <!-- Generator: Sketch 49 (51002) - http://www.bohemiancoding.com/sketch -->
    <title>侧栏  常态</title>
    <desc>Created with Sketch.</desc>
    <defs></defs>
    <g id="Page-1" stroke="none" stroke-width="1" fill="none" fill-rule="evenodd">
        <path d="M1.70255999,5.8882174 C1.6217902,5.81744402 1.576211,5.72017091 1.576211,5.61856895 C1.576211,5.51696699 1.6217902,5.41969388 1.70255999,5.3489205 L5.28066078,2.11073505 C5.38755855,2.01482837 5.54302698,1.97767801 5.68850262,2.01327816 C5.83397827,2.04887831 5.94735992,2.15182045 5.9859378,2.28332728 C6.02451568,2.41483411 5.9824289,2.55492661 5.87553114,2.65083329 L2.29743034,5.8882174 C2.21875077,5.95976171 2.11168328,6 1.99999516,6 C1.88830705,6 1.78123956,5.95976171 1.70255999,5.8882174 L1.70255999,5.8882174 Z M1.70255999,5.8882174 C1.6217902,5.81744402 1.576211,5.72017091 1.576211,5.61856895 C1.576211,5.51696699 1.6217902,5.41969388 1.70255999,5.3489205 L5.28066078,2.11073505 C5.38755855,2.01482837 5.54302698,1.97767801 5.68850262,2.01327816 C5.83397827,2.04887831 5.94735992,2.15182045 5.9859378,2.28332728 C6.02451568,2.41483411 5.9824289,2.55492661 5.87553114,2.65083329 L2.29743034,5.8882174 C2.21875077,5.95976171 2.11168328,6 1.99999516,6 C1.88830705,6 1.78123956,5.95976171 1.70255999,5.8882174 L1.70255999,5.8882174 Z M1.70255999,5.8882174 L-1.8755408,2.65083329 C-2.04079043,2.5025744 -2.04158545,2.26148172 -1.87731654,2.11233771 C-1.71304762,1.9631937 -1.44592007,1.96247616 -1.28067045,2.11073505 L2.29743034,5.3489205 C2.45486732,5.49831257 2.45189392,5.73367941 2.2907238,5.87979284 C2.12955368,6.02590627 1.86878617,6.02964137 1.70255999,5.8882174 L1.70255999,5.8882174 Z M1.70255999,5.8882174 L-1.8755408,2.65083329 C-2.04079043,2.5025744 -2.04158545,2.26148172 -1.87731654,2.11233771 C-1.71304762,1.9631937 -1.44592007,1.96247616 -1.28067045,2.11073505 L2.29743034,5.3489205 C2.45486732,5.49831257 2.45189392,5.73367941 2.2907238,5.87979284 C2.12955368,6.02590627 1.86878617,6.02964137 1.70255999,5.8882174 L1.70255999,5.8882174 Z" id="侧栏--常态" fill="#8E95A8" fill-rule="nonzero" transform="translate(2.000000, 4.000000) scale(-1, -1) rotate(-270.000000) translate(-2.000000, -4.000000) "></path>
    </g>
</svg>