<?xml version="1.0" encoding="UTF-8"?>
<svg width="11px" height="11px" viewBox="0 0 11 11" version="1.1" xmlns="http://www.w3.org/2000/svg" xmlns:xlink="http://www.w3.org/1999/xlink">
    <!-- Generator: Sketch 49 (51002) - http://www.bohemiancoding.com/sketch -->
    <title>搜索</title>
    <desc>Created with Sketch.</desc>
    <defs></defs>
    <g id="Page-1" stroke="none" stroke-width="1" fill="none" fill-rule="evenodd">
        <path d="M6.62132034,6.62132034 C7.79289322,5.44974747 7.79289322,3.55025253 6.62132034,2.37867966 C5.44974747,1.20710678 3.55025253,1.20710678 2.37867966,2.37867966 C1.20710678,3.55025253 1.20710678,5.44974747 2.37867966,6.62132034 C3.55025253,7.79289322 5.44974747,7.79289322 6.62132034,6.62132034 Z M7.30900687,8.01611365 C5.54216101,9.43121328 2.95587454,9.31983557 1.31801948,7.68198052 C-0.439339828,5.9246212 -0.439339828,3.0753788 1.31801948,1.31801948 C3.0753788,-0.439339828 5.9246212,-0.439339828 7.68198052,1.31801948 C9.19631148,2.83235045 9.40573101,5.15744945 8.31023908,6.89602552 L10.6805429,9.26632936 C10.9771041,9.56289053 10.9821196,10.0386957 10.6871843,10.3336309 C10.3942911,10.6265242 9.924878,10.6319848 9.61988275,10.3269895 L7.30900687,8.01611365 Z" id="搜索" fill="#6F7D95" fill-rule="nonzero"></path>
    </g>
</svg>