<?xml version="1.0" encoding="UTF-8"?>
<svg width="14px" height="15px" viewBox="0 0 14 15" version="1.1" xmlns="http://www.w3.org/2000/svg" xmlns:xlink="http://www.w3.org/1999/xlink">
    <!-- Generator: Sketch 47.1 (45422) - http://www.bohemiancoding.com/sketch -->
    <title>首页</title>
    <desc>Created with Sketch.</desc>
    <defs></defs>
    <g id="Page-2" stroke="none" stroke-width="1" fill="none" fill-rule="evenodd">
        <g id="3-发起查询" transform="translate(-33.000000, -185.000000)" fill-rule="nonzero" fill="#FFFFFF">
            <g id="侧边栏" transform="translate(-2.000000, -1.000000)">
                <g id="Group-4" transform="translate(35.000000, 183.000000)">
                    <g id="首页" transform="translate(0.000000, 3.000000)">
                        <path d="M14,6.79092281 L7.00135374,0 L0,6.7953056 L0.298588236,7.49999998 L1.5668087,7.49999998 C1.55829414,7.55192383 1.55364475,7.60518739 1.55364475,7.65958015 L1.55364475,14.0425381 C1.55364475,14.5714417 1.97203427,15 2.48789302,15 L5.91294721,15 L5.91294721,10.2127672 L8.09252375,10.2127672 L8.09252375,15 L11.5175406,15 C12.0334367,15 12.4516582,14.5714226 12.4516582,14.0425381 L12.4516582,7.65958017 C12.4516582,7.60518741 12.4469901,7.55192385 12.4384942,7.5 L13.6872769,7.5 L14,6.79092281 Z M11.5175219,6.70213743 L11.5175219,14.0425381 L9.02660399,14.0425381 L9.02660399,9.89362598 C9.02660399,9.5410874 8.74793905,9.25530531 8.40375313,9.25530531 L5.60156846,9.25530531 C5.25766262,9.25530531 4.97882964,9.5410874 4.97882964,9.89362598 L4.97882964,14.0425381 L2.48789302,14.0425381 L2.48789302,6.70213743 L1.55198291,6.70213743 L7.05277715,1.27660307 L12.7645494,6.70213743 L11.5175219,6.70213743 Z" id="Shape"></path>
                    </g>
                </g>
            </g>
        </g>
    </g>
</svg>