<?xml version="1.0" encoding="UTF-8"?>
<svg width="35px" height="35px" viewBox="0 0 35 35" version="1.1" xmlns="http://www.w3.org/2000/svg" xmlns:xlink="http://www.w3.org/1999/xlink">
    <!-- Generator: Sketch 47.1 (45422) - http://www.bohemiancoding.com/sketch -->
    <title>个人中心-用户 </title>
    <desc>Created with Sketch.</desc>
    <defs></defs>
    <g id="Page-2" stroke="none" stroke-width="1" fill="none" fill-rule="evenodd">
        <g id="20-个人中心" transform="translate(-1187.000000, -65.000000)" fill-rule="nonzero">
            <g id="Group-15" transform="translate(1129.000000, 47.000000)">
                <g id="个人中心-用户-" transform="translate(58.000000, 18.000000)">
                    <path d="M24.659796,26.6706308 C27.7328831,24.448208 29.7342916,20.8353386 29.7342916,16.752963 C29.7342916,9.99615549 24.256787,4.51869198 17.5000206,4.51869198 C10.743213,4.51869198 5.26570846,9.99615549 5.26570842,16.752963 C5.26570842,20.8183755 7.25031807,24.4185533 10.3017186,26.643235 L8.53639805,27.2945307 L5.83970456,29.6409941 L11.7934103,33.5284369 L17.1867973,34.1938617 L22.1248893,33.8086374 L25.5570371,32.2589094 L28.4638194,30.0612948 L28.977356,29.6410352 L26.7827808,27.5047016 L24.659796,26.6706308 L24.659796,26.6706308 Z" id="Shape" fill="#D6EDFD"></path>
                    <path d="M17.4999794,34.9641461 C7.87031606,34.9641461 0.0358333372,27.1296223 0.0358333773,17.5002875 C0.0358333773,7.87037767 7.8703161,0.0358538876 17.4999794,0.0358538876 C27.1296428,0.0358538876 34.9641256,7.87037767 34.9641256,17.5002875 C34.9641256,27.1296223 27.1296428,34.9641461 17.4999794,34.9641461 Z M17.4999794,1.15657368 C8.48813718,1.15657368 1.15655312,8.48844524 1.15655317,17.5002875 C1.15655317,26.5118423 8.48813722,33.8434674 17.4999794,33.8434674 C26.5118217,33.8434674 33.8434058,26.5118833 33.8434058,17.5002875 C33.8434058,8.48844524 26.5118217,1.15657368 17.4999794,1.15657368 Z" id="Shape" fill="#3392D6"></path>
                    <path d="M22.7922445,25.2752553 C22.5572244,25.2358662 22.3210953,25.1964772 22.0674691,25.1398374 C21.7832845,24.8387308 21.17873,24.2116682 20.8222979,23.8425445 L20.8222979,21.9976654 C22.5752144,20.7413224 23.7408271,18.5580012 23.7408271,16.0740662 C23.7408271,12.1860894 20.89204,9.02297018 17.3903965,9.02297018 C13.8884655,9.02297018 11.0396784,12.1861305 11.0396784,16.0740662 C11.0396784,18.557878 12.205209,20.741117 13.9580433,21.9975012 L13.9580433,24.090708 C13.6106062,24.4510421 13.1793389,24.8994368 12.9525334,25.1398374 C12.6986197,25.1964772 12.4627782,25.2358663 12.2277581,25.2752553 C10.9951552,25.4826333 8.66277988,26.3861176 5.37266272,28.7276933 L6.02276725,29.6409941 C9.1027546,27.4485958 11.2548192,26.5754645 12.4135726,26.3806549 C12.5334428,26.3603072 12.6531868,26.3392226 12.7727977,26.3174023 L15.0798721,29.0590298 L17.3155203,27.0009404 L19.5818091,29.3391892 L22.0562151,26.2806419 C22.2435905,26.3175256 22.4265299,26.350343 22.6065121,26.3806959 C23.7652655,26.5755055 25.897615,27.4485958 28.977356,29.6410352 L29.6274605,28.7277344 C26.3375487,26.3861587 24.0248473,25.4826743 22.7922445,25.2752553 L22.7922445,25.2752553 Z M17.3903554,10.0805606 C19.612121,10.0805606 21.5096147,11.6791656 22.2660163,13.9231517 C21.9193185,14.093605 21.628932,14.3808289 21.3454046,14.663617 C20.8975027,15.1106974 20.4753126,15.5260283 19.8528913,15.5137063 C19.2982817,15.4970307 18.5748617,14.9205291 17.8752641,14.3632086 C16.9430697,13.620361 15.9788794,12.8520482 14.8860893,12.8520482 C13.7009669,12.8520482 13.0921408,13.2641343 12.5983193,13.6807385 C13.4063498,11.5644075 15.2489699,10.0805607 17.3903554,10.0805606 L17.3903554,10.0805606 Z M12.1603161,16.0740662 C12.1603161,15.8341995 12.1761703,15.5987276 12.2001981,15.3661308 C12.5951156,15.1621209 12.8887881,14.9120269 13.146193,14.6877269 C13.6225584,14.2726836 13.9664633,13.9728091 14.8860482,13.9728091 C15.5870423,13.9728091 16.3952782,14.6168758 17.1769808,15.2395847 C18.0199645,15.9112937 18.8916993,16.6060036 19.8189239,16.6338922 C19.8446357,16.6347136 19.8698134,16.6349601 19.8952377,16.6349601 C20.9557443,16.6349601 21.6364894,15.9558579 22.1369237,15.4570666 C22.2779686,15.3162681 22.4147419,15.1808091 22.5415345,15.0766889 C22.5893435,15.4018233 22.6200662,15.7335294 22.6200662,16.0740251 C22.6200662,19.3786822 20.2741367,22.0672843 17.3903144,22.0672843 C14.506492,22.0673254 12.1603161,19.3787233 12.1603161,16.0740662 Z M17.3903554,23.124998 C18.2063541,23.124998 18.9842781,22.9471516 19.7015781,22.6344623 L19.7015781,23.5110438 C18.0632145,24.0607247 15.9476639,23.6664643 15.0786809,23.4612632 L15.0786809,22.6343802 C15.7961042,22.9471516 16.5741514,23.124998 17.3903554,23.124998 Z M19.5061936,27.6510038 L17.359756,25.4364261 L15.1826779,27.440874 L13.8342901,25.838285 C14.1354379,25.5206669 14.6945656,24.9407973 15.0237252,24.6000552 C15.6497609,24.7389232 16.6466043,24.9121283 17.7271957,24.911923 C18.4728773,24.911923 19.2549085,24.821439 19.9843662,24.5882261 C20.2739724,24.8880184 20.7521862,25.3837704 21.0704614,25.7173659 L19.5061936,27.6510038 Z" id="Shape" fill="#3392D6"></path>
                    <path d="M16.9396606,29.5008938 L18.0603804,29.5008938 L18.0603804,30.6216136 L16.9396606,30.6216136 L16.9396606,29.5008938 Z M16.9396606,31.6985495 L18.0603804,31.6985495 L18.0603804,32.8192693 L16.9396606,32.8192693 L16.9396606,31.6985495 Z" id="Shape" fill="#189BFA"></path>
                    <path d="M12.1603161,16.0740662 C12.1603161,19.3787233 14.506492,22.0673254 17.3903144,22.0673254 C20.2741368,22.0673253 22.6200662,19.3787644 22.6200662,16.0740662 C22.6200662,15.7335705 22.5893435,15.4018644 22.5415345,15.07673 C22.4147419,15.1808502 22.2779686,15.3163092 22.1369237,15.4571076 C21.6364894,15.955899 20.9557443,16.6350011 19.8952377,16.6350011 C19.8697724,16.6350011 19.8446357,16.6347547 19.8188829,16.6339333 C18.8916172,16.6060036 18.0199235,15.9113347 17.1769398,15.2396257 C16.3952371,14.6169169 15.5870012,13.9728501 14.8860071,13.9728501 C13.9664222,13.9728501 13.6224763,14.2727246 13.1461519,14.687768 C12.8887059,14.912068 12.5950746,15.162162 12.2001569,15.3661719 C12.1761292,15.5987276 12.1603161,15.8341995 12.1603161,16.0740662 Z M15.0786809,22.6343802 L15.0786809,23.4612632 C15.9476639,23.6665053 18.0632145,24.0607657 19.7015781,23.5110438 L19.7015781,22.6344623 C18.9842781,22.9471516 18.2063541,23.124998 17.3903554,23.124998 C16.5741514,23.124998 15.7961042,22.9471516 15.0786809,22.6343802 L15.0786809,22.6343802 Z M15.1826369,27.440874 L17.3597149,25.4364261 L19.5061936,27.6510038 L21.0704204,25.7173248 C20.7521451,25.3836883 20.2739314,24.8879774 19.9843252,24.588185 C19.2549085,24.8213979 18.4728362,24.9118819 17.7271546,24.9118819 C16.6465222,24.9120462 15.6497198,24.7388821 15.023643,24.6000141 C14.6944834,24.9407562 14.1353557,25.5206669 13.834208,25.8382439 L15.1826369,27.440874 L15.1826369,27.440874 Z" id="Shape" fill="#FFFFFF"></path>
                </g>
            </g>
        </g>
    </g>
</svg>